<svg width="18" height="18" viewBox="0 0 18 18" fill="none" xmlns="http://www.w3.org/2000/svg">
<path d="M8.98198 0C5.3283 0 2.35547 2.97283 2.35547 6.62688C2.35547 7.57999 2.55055 8.49001 2.935 9.33186C4.59181 12.9574 7.76838 16.7851 8.70271 17.8718C8.77271 17.953 8.87476 17.9998 8.98216 17.9998C9.08956 17.9998 9.19161 17.953 9.26161 17.8718C10.1956 16.7853 13.3721 12.9577 15.0295 9.33186C15.4141 8.49001 15.609 7.57999 15.609 6.62688C15.6087 2.97283 12.6358 0 8.98198 0ZM8.98198 10.0689C7.08403 10.0689 5.53977 8.52464 5.53977 6.62669C5.53977 4.72856 7.08403 3.1843 8.98198 3.1843C10.8799 3.1843 12.4242 4.72856 12.4242 6.62669C12.4244 8.52464 10.8801 10.0689 8.98198 10.0689Z" fill="black"/>
</svg>
